# xmcd
#
# Track frame offsets: 
#        225
#        5643
#        12089
#        21241
#        26330
#        40570
#        50177
#        60004
#        67225
#        72901
#        76847
#        82483
#        90864
#        100089
#        108264
#        115581
#        121246
#        129816
#        137578
#        144072
#        150802
#        159005
#        164303
#        174244
#        187449
#        193593
#        201221
#        207850
#        217900
#        230815
#        234779
#
# Disc length: 3187 seconds
#
# Revision: 0
# Processed by: cddbd v1.5.2PL0 Copyright (c) Steve Scherf et al.
# Submitted via: ExactAudioCopy v1.0b1
#
DISCID=840c701f
DTITLE=Various Artist - Pesničky pre deti - Kolo, kolo mlynské
DYEAR=2010
DGENRE=Other
TTITLE0=Kolo, kolo mlynské
TTITLE1=Medveďku, daj labku
TTITLE2=Kohútik jarabý
TTITLE3=Zlatá brána
TTITLE4=Pod horou, pod horou
TTITLE5=Kukulienka
TTITLE6=Pec nám spadla
TTITLE7=Padá sniežik bielučký
TTITLE8=Ťap, ťap,ťapušky and cip, cip, cipovička
TTITLE9=Oli oli Janko
TTITLE10=Išla sova na tanec
TTITLE11=Sedemdesiat sukien mala
TTITLE12=Šošovička, hrášok, fazuľa
TTITLE13=Zvieratká
TTITLE14=Spievanky
TTITLE15=Sniežik sa nám chumelí
TTITLE16=Jedna druhej riekla
TTITLE17=Prší, prší
TTITLE18=Muška
TTITLE19=Doktor Kaz
TTITLE20=Spi dieťatko
TTITLE21=Maličká som
TTITLE22=Tik - Tak
TTITLE23=Tancuj, tancuj, vykrúcaj
TTITLE24=Kom, kom, kominár and Ide baba and Ide vláčik
TTITLE25=Farbičky
TTITLE26=1,2,3,4,5
TTITLE27=Anička dušička
TTITLE28=Rozprávka
TTITLE29=Večerníček
TTITLE30=Bonus
EXTD=
EXTT0=
EXTT1=
EXTT2=
EXTT3=
EXTT4=
EXTT5=
EXTT6=
EXTT7=
EXTT8=
EXTT9=
EXTT10=
EXTT11=
EXTT12=
EXTT13=
EXTT14=
EXTT15=
EXTT16=
EXTT17=
EXTT18=
EXTT19=
EXTT20=
EXTT21=
EXTT22=
EXTT23=
EXTT24=
EXTT25=
EXTT26=
EXTT27=
EXTT28=
EXTT29=
EXTT30=
PLAYORDER=
